<svg xmlns="http://www.w3.org/2000/svg" width="150" height="100" viewBox="0 0 150 100"><g transform="translate(0)"><rect width="150" height="100" transform="translate(0 0)" fill="#eee"/><path d="M24.089,30.874a5.071,5.071,0,0,1-1.584-.249,5.068,5.068,0,0,1-1.584.249H.754A5,5,0,0,1-3.281,22.92L6.8,9.145a5,5,0,0,1,8.069,0l7.66,10.465,1.7-2.277a5,5,0,0,1,8.005,0l4.149,5.544a5,5,0,0,1-4,8ZM21.169,4.541A4.532,4.532,0,1,1,25.7,9.08,4.537,4.537,0,0,1,21.169,4.541Z" transform="translate(58.517 34.739)" fill="#ddd"/></g></svg>